<svg width="17" height="17" viewBox="0 0 17 17" fill="none" xmlns="http://www.w3.org/2000/svg">
<path d="M8.08042 1.33917H2.18454C1.73777 1.33917 1.3093 1.51665 0.993389 1.83256C0.677477 2.14847 0.5 2.57694 0.5 3.02371V14.8155C0.5 15.2622 0.677477 15.6907 0.993389 16.0066C1.3093 16.3225 1.73777 16.5 2.18454 16.5H13.9763C14.4231 16.5 14.8515 16.3225 15.1674 16.0066C15.4834 15.6907 15.6608 15.2622 15.6608 14.8155V8.91959M13.4499 1.02332C13.785 0.688243 14.2394 0.5 14.7133 0.5C15.1871 0.5 15.6416 0.688243 15.9767 1.02332C16.3118 1.35839 16.5 1.81285 16.5 2.28672C16.5 2.76059 16.3118 3.21505 15.9767 3.55012L8.38532 11.1423C8.18532 11.3422 7.93825 11.4884 7.66686 11.5677L5.24702 12.2752C5.17455 12.2963 5.09772 12.2976 5.02459 12.2789C4.95146 12.2601 4.8847 12.2221 4.83132 12.1687C4.77794 12.1153 4.73989 12.0485 4.72115 11.9754C4.70241 11.9023 4.70368 11.8255 4.72482 11.753L5.43232 9.33314C5.51194 9.06197 5.6585 8.81519 5.85851 8.61553L13.4499 1.02332Z" stroke="white" stroke-linecap="round" stroke-linejoin="round"/>
</svg>
